# Blender v2.79 (sub 0) OBJ File: ''
# www.blender.org
mtllib arrow.mtl
o Cone
v 0.000000 -1.534316 -1.000000
v 0.000000 1.425051 -1.000000
v 0.382683 -1.534316 -0.923880
v 0.382683 1.425051 -0.923880
v 0.707107 -1.534316 -0.707107
v 0.707107 1.425051 -0.707107
v 0.923880 -1.534316 -0.382683
v 0.923880 1.425051 -0.382683
v 1.000000 -1.534316 0.000000
v 1.000000 1.425051 0.000000
v 0.923880 -1.534316 0.382684
v 0.923880 1.425051 0.382684
v 0.707107 -1.534316 0.707107
v 0.707107 1.425051 0.707107
v 0.382683 -1.534316 0.923880
v 0.382683 1.425051 0.923880
v 0.000000 -1.534316 1.000000
v 0.000000 1.425051 1.000000
v -0.382683 -1.534316 0.923880
v -0.382683 1.425051 0.923880
v -0.707107 -1.534316 0.707107
v -0.707107 1.425051 0.707107
v -0.923880 -1.534316 0.382684
v -0.923880 1.425051 0.382684
v -1.000000 -1.534316 -0.000000
v -1.000000 1.425051 -0.000000
v -0.923879 -1.534316 -0.382684
v -0.923879 1.425051 -0.382684
v -0.707107 -1.534316 -0.707107
v -0.707107 1.425051 -0.707107
v -0.382683 -1.534316 -0.923880
v -0.382683 1.425051 -0.923880
v 0.000000 1.292735 -2.000000
v 0.000000 5.256084 0.000000
v 0.765367 1.292735 -1.847759
v 1.414214 1.292735 -1.414214
v 1.847759 1.292735 -0.765367
v 2.000000 1.292735 0.000000
v 1.847759 1.292735 0.765367
v 1.414214 1.292735 1.414214
v 0.765367 1.292735 1.847759
v 0.000000 1.292735 2.000000
v -0.765366 1.292735 1.847759
v -1.414213 1.292735 1.414214
v -1.847759 1.292735 0.765367
v -2.000000 1.292735 -0.000000
v -1.847759 1.292735 -0.765367
v -1.414213 1.292735 -1.414214
v -0.765366 1.292735 -1.847759
vn 0.1951 0.0000 -0.9808
vn 0.5556 0.0000 -0.8315
vn 0.8315 0.0000 -0.5556
vn 0.9808 0.0000 -0.1951
vn 0.9808 0.0000 0.1951
vn 0.8315 0.0000 0.5556
vn 0.5556 0.0000 0.8315
vn 0.1951 0.0000 0.9808
vn -0.1951 0.0000 0.9808
vn -0.5556 0.0000 0.8315
vn -0.8315 0.0000 0.5556
vn -0.9808 0.0000 0.1951
vn -0.9808 0.0000 -0.1951
vn -0.8315 0.0000 -0.5556
vn 0.0000 1.0000 0.0000
vn -0.5556 0.0000 -0.8315
vn -0.1951 0.0000 -0.9808
vn 0.0000 -1.0000 0.0000
vn 0.1748 0.4436 -0.8790
vn 0.4979 0.4436 -0.7452
vn 0.7452 0.4436 -0.4979
vn 0.8790 0.4436 -0.1748
vn 0.8790 0.4436 0.1748
vn 0.7452 0.4436 0.4979
vn 0.4979 0.4436 0.7452
vn 0.1748 0.4436 0.8790
vn -0.1748 0.4436 0.8790
vn -0.4979 0.4436 0.7452
vn -0.7452 0.4436 0.4979
vn -0.8790 0.4436 0.1748
vn -0.8790 0.4436 -0.1748
vn -0.7452 0.4436 -0.4979
vn -0.4979 0.4436 -0.7452
vn -0.1748 0.4436 -0.8790
usemtl None
s off
f 1//1 2//1 4//1 3//1
f 3//2 4//2 6//2 5//2
f 5//3 6//3 8//3 7//3
f 7//4 8//4 10//4 9//4
f 9//5 10//5 12//5 11//5
f 11//6 12//6 14//6 13//6
f 13//7 14//7 16//7 15//7
f 15//8 16//8 18//8 17//8
f 17//9 18//9 20//9 19//9
f 19//10 20//10 22//10 21//10
f 21//11 22//11 24//11 23//11
f 23//12 24//12 26//12 25//12
f 25//13 26//13 28//13 27//13
f 27//14 28//14 30//14 29//14
f 4//15 2//15 32//15 30//15 28//15 26//15 24//15 22//15 20//15 18//15 16//15 14//15 12//15 10//15 8//15 6//15
f 29//16 30//16 32//16 31//16
f 31//17 32//17 2//17 1//17
f 1//18 3//18 5//18 7//18 9//18 11//18 13//18 15//18 17//18 19//18 21//18 23//18 25//18 27//18 29//18 31//18
f 33//19 34//19 35//19
f 35//20 34//20 36//20
f 36//21 34//21 37//21
f 37//22 34//22 38//22
f 38//23 34//23 39//23
f 39//24 34//24 40//24
f 40//25 34//25 41//25
f 41//26 34//26 42//26
f 42//27 34//27 43//27
f 43//28 34//28 44//28
f 44//29 34//29 45//29
f 45//30 34//30 46//30
f 46//31 34//31 47//31
f 47//32 34//32 48//32
f 48//33 34//33 49//33
f 49//34 34//34 33//34
f 33//18 35//18 36//18 37//18 38//18 39//18 40//18 41//18 42//18 43//18 44//18 45//18 46//18 47//18 48//18 49//18
